<mxfile host="app.diagrams.net" agent="Mozilla/5.0 (Windows NT 10.0; Win64; x64) AppleWebKit/537.36 (KHTML, like Gecko) Chrome/131.0.0.0 Safari/537.36 Edg/131.0.0.0" version="25.0.0">
  <diagram name="第 1 页" id="qn2Ep0YHYUigRUEZk1cU">
    <mxGraphModel dx="946" dy="627" grid="1" gridSize="10" guides="1" tooltips="1" connect="1" arrows="1" fold="1" page="1" pageScale="1" pageWidth="1169" pageHeight="827" math="0" shadow="0">
      <root>
        <mxCell id="0" />
        <mxCell id="1" parent="0" />
        <mxCell id="eGHgUXVfeGXZCtny3Fs--3" value="" style="edgeStyle=orthogonalEdgeStyle;rounded=0;orthogonalLoop=1;jettySize=auto;html=1;fontSize=13;" edge="1" parent="1" source="eGHgUXVfeGXZCtny3Fs--1" target="eGHgUXVfeGXZCtny3Fs--2">
          <mxGeometry relative="1" as="geometry" />
        </mxCell>
        <mxCell id="eGHgUXVfeGXZCtny3Fs--1" value="Data processing" style="rounded=1;whiteSpace=wrap;html=1;fillColor=none;fontSize=13;" vertex="1" parent="1">
          <mxGeometry x="220" y="110" width="120" height="60" as="geometry" />
        </mxCell>
        <mxCell id="eGHgUXVfeGXZCtny3Fs--5" value="" style="edgeStyle=orthogonalEdgeStyle;rounded=0;orthogonalLoop=1;jettySize=auto;html=1;fontSize=13;" edge="1" parent="1" source="eGHgUXVfeGXZCtny3Fs--2" target="eGHgUXVfeGXZCtny3Fs--4">
          <mxGeometry relative="1" as="geometry" />
        </mxCell>
        <mxCell id="eGHgUXVfeGXZCtny3Fs--2" value="PCA analysis" style="whiteSpace=wrap;html=1;fillColor=none;rounded=1;fontSize=13;" vertex="1" parent="1">
          <mxGeometry x="390" y="110" width="120" height="60" as="geometry" />
        </mxCell>
        <mxCell id="eGHgUXVfeGXZCtny3Fs--7" value="" style="edgeStyle=orthogonalEdgeStyle;rounded=0;orthogonalLoop=1;jettySize=auto;html=1;fontSize=13;" edge="1" parent="1" source="eGHgUXVfeGXZCtny3Fs--4" target="eGHgUXVfeGXZCtny3Fs--6">
          <mxGeometry relative="1" as="geometry" />
        </mxCell>
        <mxCell id="eGHgUXVfeGXZCtny3Fs--4" value="DEGs analysis&lt;div&gt;（DESeq2）&lt;/div&gt;" style="whiteSpace=wrap;html=1;fillColor=none;rounded=1;fontSize=13;" vertex="1" parent="1">
          <mxGeometry x="570" y="110" width="120" height="60" as="geometry" />
        </mxCell>
        <mxCell id="eGHgUXVfeGXZCtny3Fs--6" value="Enrichment Analysis&lt;div&gt;（GSA）（GSEA）&lt;/div&gt;" style="whiteSpace=wrap;html=1;fillColor=none;rounded=1;fontSize=13;" vertex="1" parent="1">
          <mxGeometry x="750" y="100" width="150" height="80" as="geometry" />
        </mxCell>
        <mxCell id="eGHgUXVfeGXZCtny3Fs--9" value="PCA plot" style="whiteSpace=wrap;html=1;fontSize=13;fillColor=none;rounded=1;" vertex="1" parent="1">
          <mxGeometry x="390" y="250" width="120" height="60" as="geometry" />
        </mxCell>
        <mxCell id="eGHgUXVfeGXZCtny3Fs--11" value="" style="endArrow=none;dashed=1;html=1;rounded=0;entryX=0.5;entryY=1;entryDx=0;entryDy=0;exitX=0.5;exitY=0;exitDx=0;exitDy=0;" edge="1" parent="1" source="eGHgUXVfeGXZCtny3Fs--9" target="eGHgUXVfeGXZCtny3Fs--2">
          <mxGeometry width="50" height="50" relative="1" as="geometry">
            <mxPoint x="460" y="350" as="sourcePoint" />
            <mxPoint x="510" y="300" as="targetPoint" />
          </mxGeometry>
        </mxCell>
        <mxCell id="eGHgUXVfeGXZCtny3Fs--12" value="&lt;font style=&quot;font-size: 13px;&quot;&gt;Heatmap&amp;nbsp;&lt;/font&gt;&lt;div&gt;&lt;font style=&quot;font-size: 13px;&quot;&gt;&amp;nbsp;volcano plot&lt;/font&gt;&lt;/div&gt;" style="rounded=1;whiteSpace=wrap;html=1;fillColor=none;" vertex="1" parent="1">
          <mxGeometry x="570" y="250" width="120" height="60" as="geometry" />
        </mxCell>
        <mxCell id="eGHgUXVfeGXZCtny3Fs--13" value="" style="endArrow=none;dashed=1;html=1;rounded=0;entryX=0.5;entryY=1;entryDx=0;entryDy=0;exitX=0.5;exitY=0;exitDx=0;exitDy=0;" edge="1" parent="1" source="eGHgUXVfeGXZCtny3Fs--12" target="eGHgUXVfeGXZCtny3Fs--4">
          <mxGeometry width="50" height="50" relative="1" as="geometry">
            <mxPoint x="630" y="420" as="sourcePoint" />
            <mxPoint x="680" y="370" as="targetPoint" />
          </mxGeometry>
        </mxCell>
        <mxCell id="eGHgUXVfeGXZCtny3Fs--14" value="Dot plot&amp;nbsp;&lt;div&gt;Enrichment map&lt;/div&gt;&lt;div&gt;Bar plot&lt;/div&gt;&lt;div&gt;Tree plot&lt;/div&gt;&lt;div&gt;Heatplot&lt;/div&gt;" style="rounded=1;whiteSpace=wrap;html=1;fillColor=none;fontSize=13;" vertex="1" parent="1">
          <mxGeometry x="753.75" y="250" width="142.5" height="80" as="geometry" />
        </mxCell>
        <mxCell id="eGHgUXVfeGXZCtny3Fs--15" value="" style="endArrow=none;dashed=1;html=1;rounded=0;entryX=0.5;entryY=1;entryDx=0;entryDy=0;exitX=0.5;exitY=0;exitDx=0;exitDy=0;" edge="1" parent="1" source="eGHgUXVfeGXZCtny3Fs--14" target="eGHgUXVfeGXZCtny3Fs--6">
          <mxGeometry width="50" height="50" relative="1" as="geometry">
            <mxPoint x="810" y="410" as="sourcePoint" />
            <mxPoint x="860" y="360" as="targetPoint" />
          </mxGeometry>
        </mxCell>
        <mxCell id="eGHgUXVfeGXZCtny3Fs--16" value="by Sun Xinhong" style="text;strokeColor=none;align=center;fillColor=none;html=1;verticalAlign=middle;whiteSpace=wrap;rounded=0;" vertex="1" parent="1">
          <mxGeometry x="220" y="310" width="110" height="30" as="geometry" />
        </mxCell>
      </root>
    </mxGraphModel>
  </diagram>
</mxfile>
